<svg width="809" height="940" viewBox="0 0 809 940" fill="none" xmlns="http://www.w3.org/2000/svg">
<g clip-path="url(#clip0_452_5)">
<rect width="809" height="940" fill="white"/>
<rect x="-32" y="431" width="1376.03" height="767.907" rx="99" transform="rotate(-45 -32 431)" fill="#5BDBBF" fill-opacity="0.4"/>
<rect x="17" y="417" width="242" height="51" rx="25.5" fill="#55EFC4"/>
<g clip-path="url(#clip1_452_5)">
<path d="M787.704 329.661C791.397 329.661 794.391 326.668 794.391 322.975C794.391 319.282 791.397 316.288 787.704 316.288C784.011 316.288 781.018 319.282 781.018 322.975C781.018 326.668 784.011 329.661 787.704 329.661Z" fill="#FDCB6E"/>
<path d="M809.992 307.373C813.685 307.373 816.679 304.379 816.679 300.686C816.679 296.994 813.685 294 809.992 294C806.299 294 803.306 296.994 803.306 300.686C803.306 304.379 806.299 307.373 809.992 307.373Z" fill="#FDCB6E"/>
<path d="M743.128 374.238C746.821 374.238 749.814 371.244 749.814 367.551C749.814 363.858 746.821 360.865 743.128 360.865C739.435 360.865 736.441 363.858 736.441 367.551C736.441 371.244 739.435 374.238 743.128 374.238Z" fill="#FDCB6E"/>
<path d="M765.416 351.949C769.109 351.949 772.102 348.956 772.102 345.263C772.102 341.57 769.109 338.576 765.416 338.576C761.723 338.576 758.729 341.57 758.729 345.263C758.729 348.956 761.723 351.949 765.416 351.949Z" fill="#FDCB6E"/>
<path d="M787.704 374.238C791.397 374.238 794.391 371.244 794.391 367.551C794.391 363.858 791.397 360.865 787.704 360.865C784.011 360.865 781.018 363.858 781.018 367.551C781.018 371.244 784.011 374.238 787.704 374.238Z" fill="#FDCB6E"/>
<path d="M809.992 351.949C813.685 351.949 816.679 348.956 816.679 345.263C816.679 341.57 813.685 338.576 809.992 338.576C806.299 338.576 803.306 341.57 803.306 345.263C803.306 348.956 806.299 351.949 809.992 351.949Z" fill="#FDCB6E"/>
<path d="M698.551 418.814C702.244 418.814 705.237 415.82 705.237 412.128C705.237 408.435 702.244 405.441 698.551 405.441C694.858 405.441 691.864 408.435 691.864 412.128C691.864 415.82 694.858 418.814 698.551 418.814Z" fill="#FDCB6E"/>
<path d="M720.84 396.526C724.533 396.526 727.526 393.532 727.526 389.839C727.526 386.146 724.533 383.153 720.84 383.153C717.147 383.153 714.153 386.146 714.153 389.839C714.153 393.532 717.147 396.526 720.84 396.526Z" fill="#FDCB6E"/>
<path d="M743.128 418.814C746.821 418.814 749.814 415.82 749.814 412.128C749.814 408.435 746.821 405.441 743.128 405.441C739.435 405.441 736.441 408.435 736.441 412.128C736.441 415.82 739.435 418.814 743.128 418.814Z" fill="#FDCB6E"/>
<path d="M765.416 396.526C769.109 396.526 772.102 393.532 772.102 389.839C772.102 386.146 769.109 383.153 765.416 383.153C761.723 383.153 758.729 386.146 758.729 389.839C758.729 393.532 761.723 396.526 765.416 396.526Z" fill="#FDCB6E"/>
<path d="M787.704 418.814C791.397 418.814 794.391 415.82 794.391 412.128C794.391 408.435 791.397 405.441 787.704 405.441C784.011 405.441 781.018 408.435 781.018 412.128C781.018 415.82 784.011 418.814 787.704 418.814Z" fill="#FDCB6E"/>
<path d="M809.992 396.526C813.685 396.526 816.679 393.532 816.679 389.839C816.679 386.146 813.685 383.153 809.992 383.153C806.299 383.153 803.306 386.146 803.306 389.839C803.306 393.532 806.299 396.526 809.992 396.526Z" fill="#FDCB6E"/>
<path d="M720.84 441.102C724.533 441.102 727.526 438.109 727.526 434.416C727.526 430.723 724.533 427.729 720.84 427.729C717.147 427.729 714.153 430.723 714.153 434.416C714.153 438.109 717.147 441.102 720.84 441.102Z" fill="#FDCB6E"/>
<path d="M743.128 463.391C746.821 463.391 749.814 460.397 749.814 456.704C749.814 453.011 746.821 450.018 743.128 450.018C739.435 450.018 736.441 453.011 736.441 456.704C736.441 460.397 739.435 463.391 743.128 463.391Z" fill="#FDCB6E"/>
<path d="M765.416 441.102C769.109 441.102 772.102 438.109 772.102 434.416C772.102 430.723 769.109 427.729 765.416 427.729C761.723 427.729 758.729 430.723 758.729 434.416C758.729 438.109 761.723 441.102 765.416 441.102Z" fill="#FDCB6E"/>
<path d="M787.704 463.391C791.397 463.391 794.391 460.397 794.391 456.704C794.391 453.011 791.397 450.018 787.704 450.018C784.011 450.018 781.018 453.011 781.018 456.704C781.018 460.397 784.011 463.391 787.704 463.391Z" fill="#FDCB6E"/>
<path d="M809.992 441.102C813.685 441.102 816.679 438.109 816.679 434.416C816.679 430.723 813.685 427.729 809.992 427.729C806.299 427.729 803.306 430.723 803.306 434.416C803.306 438.109 806.299 441.102 809.992 441.102Z" fill="#FDCB6E"/>
<path d="M765.416 485.679C769.109 485.679 772.102 482.685 772.102 478.992C772.102 475.3 769.109 472.306 765.416 472.306C761.723 472.306 758.729 475.3 758.729 478.992C758.729 482.685 761.723 485.679 765.416 485.679Z" fill="#FDCB6E"/>
<path d="M787.704 507.967C791.397 507.967 794.391 504.973 794.391 501.28C794.391 497.588 791.397 494.594 787.704 494.594C784.011 494.594 781.018 497.588 781.018 501.28C781.018 504.973 784.011 507.967 787.704 507.967Z" fill="#FDCB6E"/>
<path d="M809.992 485.679C813.685 485.679 816.679 482.685 816.679 478.992C816.679 475.3 813.685 472.306 809.992 472.306C806.299 472.306 803.306 475.3 803.306 478.992C803.306 482.685 806.299 485.679 809.992 485.679Z" fill="#FDCB6E"/>
<path d="M809.992 530.255C813.685 530.255 816.679 527.262 816.679 523.569C816.679 519.876 813.685 516.882 809.992 516.882C806.299 516.882 803.306 519.876 803.306 523.569C803.306 527.262 806.299 530.255 809.992 530.255Z" fill="#FDCB6E"/>
</g>
</g>
<defs>
<clipPath id="clip0_452_5">
<rect width="809" height="940" fill="white"/>
</clipPath>
<clipPath id="clip1_452_5">
<rect width="209" height="285" fill="white" transform="translate(625 294)"/>
</clipPath>
</defs>
</svg>
