<svg width="18" height="18" viewBox="0 0 18 18" fill="none" xmlns="http://www.w3.org/2000/svg">
<path d="M16.125 4.5C16.125 4.6837 16.0575 4.861 15.9355 4.99828C15.8134 5.13556 15.6452 5.22326 15.4628 5.24475L15.375 5.25H14.7413L13.818 14.64C13.7677 15.1495 13.5298 15.6221 13.1503 15.9659C12.7709 16.3097 12.2772 16.5001 11.7653 16.5H6.23475C5.72276 16.5001 5.22906 16.3097 4.84965 15.9659C4.47025 15.6221 4.23227 15.1495 4.182 14.64L3.25875 5.25H2.625C2.42609 5.25 2.23532 5.17098 2.09467 5.03033C1.95402 4.88968 1.875 4.69891 1.875 4.5C1.875 4.30109 1.95402 4.11032 2.09467 3.96967C2.23532 3.82902 2.42609 3.75 2.625 3.75H6.375C6.375 3.40528 6.4429 3.06394 6.57482 2.74546C6.70673 2.42698 6.90009 2.1376 7.14384 1.89384C7.3876 1.65009 7.67698 1.45673 7.99546 1.32482C8.31394 1.1929 8.65528 1.125 9 1.125C9.34472 1.125 9.68606 1.1929 10.0045 1.32482C10.323 1.45673 10.6124 1.65009 10.8562 1.89384C11.0999 2.1376 11.2933 2.42698 11.4252 2.74546C11.5571 3.06394 11.625 3.40528 11.625 3.75H15.375C15.5739 3.75 15.7647 3.82902 15.9053 3.96967C16.046 4.11032 16.125 4.30109 16.125 4.5ZM10.6875 6.9375C10.5516 6.93751 10.4202 6.98673 10.3178 7.07608C10.2154 7.16542 10.1487 7.28883 10.1302 7.4235L10.125 7.5V12.75L10.1302 12.8265C10.1488 12.9611 10.2154 13.0845 10.3179 13.1738C10.4203 13.2631 10.5516 13.3123 10.6875 13.3123C10.8234 13.3123 10.9547 13.2631 11.0571 13.1738C11.1596 13.0845 11.2262 12.9611 11.2448 12.8265L11.25 12.75V7.5L11.2448 7.4235C11.2263 7.28883 11.1596 7.16542 11.0572 7.07608C10.9548 6.98673 10.8234 6.93751 10.6875 6.9375ZM7.3125 6.9375C7.17657 6.93751 7.04524 6.98673 6.9428 7.07608C6.84036 7.16542 6.77374 7.28883 6.75525 7.4235L6.75 7.5V12.75L6.75525 12.8265C6.77377 12.9611 6.84042 13.0845 6.94285 13.1738C7.04529 13.2631 7.1766 13.3123 7.3125 13.3123C7.4484 13.3123 7.57971 13.2631 7.68215 13.1738C7.78458 13.0845 7.85123 12.9611 7.86975 12.8265L7.875 12.75V7.5L7.86975 7.4235C7.85126 7.28883 7.78464 7.16542 7.6822 7.07608C7.57976 6.98673 7.44843 6.93751 7.3125 6.9375ZM9 2.625C8.70163 2.625 8.41548 2.74353 8.2045 2.95451C7.99353 3.16548 7.875 3.45163 7.875 3.75H10.125C10.125 3.45163 10.0065 3.16548 9.7955 2.95451C9.58452 2.74353 9.29837 2.625 9 2.625Z" fill="black"/>
</svg>
