<svg width="14" height="14" viewBox="0 0 14 14" fill="none" xmlns="http://www.w3.org/2000/svg">
<path d="M12.4151 4.82747L8.94385 4.32298L7.39209 1.17708C7.34971 1.09095 7.27998 1.02122 7.19385 0.978838C6.97783 0.872197 6.71533 0.961065 6.60732 1.17708L5.05556 4.32298L1.58428 4.82747C1.48857 4.84114 1.40107 4.88626 1.33408 4.95462C1.25309 5.03786 1.20846 5.14985 1.21 5.26599C1.21154 5.38212 1.25912 5.49289 1.34228 5.57396L3.85381 8.02259L3.26045 11.4802C3.24653 11.5606 3.25543 11.6434 3.28614 11.719C3.31685 11.7946 3.36813 11.8601 3.43417 11.9081C3.50022 11.9561 3.57838 11.9846 3.6598 11.9904C3.74122 11.9962 3.82264 11.9791 3.89482 11.9409L6.9997 10.3085L10.1046 11.9409C10.1894 11.9861 10.2878 12.0011 10.3821 11.9847C10.62 11.9437 10.78 11.7181 10.739 11.4802L10.1456 8.02259L12.6571 5.57396C12.7255 5.50696 12.7706 5.41946 12.7843 5.32376C12.8212 5.0845 12.6544 4.86302 12.4151 4.82747Z" fill="black"/>
</svg>
