<svg width="21" height="21" viewBox="0 0 21 21" fill="none" xmlns="http://www.w3.org/2000/svg">
<path d="M18.0469 6.11953H10.6846L8.279 3.81855C8.2484 3.7899 8.20814 3.7738 8.16621 3.77344H2.95312C2.59014 3.77344 2.29688 4.0667 2.29688 4.42969V16.5703C2.29688 16.9333 2.59014 17.2266 2.95312 17.2266H18.0469C18.4099 17.2266 18.7031 16.9333 18.7031 16.5703V6.77578C18.7031 6.41279 18.4099 6.11953 18.0469 6.11953ZM12.9609 11.833C12.9609 11.9109 12.8912 11.9766 12.8071 11.9766H11.0742V13.7177C11.0742 13.7977 11.0086 13.8633 10.9307 13.8633H10.0693C9.99141 13.8633 9.92578 13.7977 9.92578 13.7177V11.9766H8.19287C8.10879 11.9766 8.03906 11.9109 8.03906 11.833V10.9717C8.03906 10.8938 8.10879 10.8281 8.19287 10.8281H9.92578V9.08701C9.92578 9.00703 9.99141 8.94141 10.0693 8.94141H10.9307C11.0086 8.94141 11.0742 9.00703 11.0742 9.08701V10.8281H12.8071C12.8912 10.8281 12.9609 10.8938 12.9609 10.9717V11.833Z" fill="black"/>
</svg>
