<svg width="14" height="14" viewBox="0 0 14 14" fill="none" xmlns="http://www.w3.org/2000/svg">
<path d="M1.16667 3.50008H0V6.41675H0.00583333L0 11.6667C0 12.3084 0.525 12.8334 1.16667 12.8334H11.6667V11.6667H1.16667V3.50008ZM12.8333 2.33341H8.16667L7 1.16675H3.5C2.85833 1.16675 2.33917 1.69175 2.33917 2.33341L2.33333 9.33342C2.33333 9.97508 2.85833 10.5001 3.5 10.5001H12.8333C13.475 10.5001 14 9.97508 14 9.33342V3.50008C14 2.85841 13.475 2.33341 12.8333 2.33341ZM4.08333 8.75008L6.70833 5.25008L8.75 7.88092L10.2083 6.12508L12.25 8.75008H4.08333Z" fill="black"/>
</svg>
