<svg width="24" height="22" viewBox="0 0 24 22" fill="none" xmlns="http://www.w3.org/2000/svg">
<path d="M20 17.3333V18C20 19.1046 19.1046 20 18 20H2C0.895417 20 0 19.1046 0 18V7.33334C0 6.22876 0.895417 5.33334 2 5.33334H2.66667V14C2.66667 15.838 4.162 17.3333 6 17.3333H20ZM24 14V3.33334C24 2.22876 23.1046 1.33334 22 1.33334H6C4.89542 1.33334 4 2.22876 4 3.33334V14C4 15.1046 4.89542 16 6 16H22C23.1046 16 24 15.1046 24 14ZM10.6667 5.33334C10.6667 6.43793 9.77125 7.33334 8.66667 7.33334C7.56208 7.33334 6.66667 6.43793 6.66667 5.33334C6.66667 4.22876 7.56208 3.33334 8.66667 3.33334C9.77125 3.33334 10.6667 4.22876 10.6667 5.33334ZM6.66667 11.3333L8.97979 9.02022C9.17504 8.82497 9.49162 8.82497 9.68692 9.02022L11.3333 10.6667L16.9798 5.02022C17.175 4.82497 17.4916 4.82497 17.6869 5.02022L21.3333 8.66668V13.3333H6.66667V11.3333Z" fill="#5BDBBF"/>
</svg>
