<svg width="21" height="21" viewBox="0 0 21 21" fill="none" xmlns="http://www.w3.org/2000/svg">
<path d="M17.582 1.74999C17.582 1.59528 17.5206 1.44691 17.4112 1.33751C17.3018 1.22811 17.1534 1.16666 16.9987 1.16666H4.16536C4.01065 1.16666 3.86228 1.22811 3.75289 1.33751C3.64349 1.44691 3.58203 1.59528 3.58203 1.74999V2.33332H17.582V1.74999Z" fill="black"/>
<path d="M18.7367 4.08333C18.7367 3.92862 18.6752 3.78025 18.5658 3.67085C18.4564 3.56146 18.308 3.5 18.1533 3.5H2.98665C2.83194 3.5 2.68357 3.56146 2.57417 3.67085C2.46478 3.78025 2.40332 3.92862 2.40332 4.08333V4.66667H18.7367V4.08333Z" fill="black"/>
<path d="M18.737 5.83334H2.26366C1.9728 5.83334 1.69386 5.94888 1.4882 6.15455C1.28253 6.36021 1.16699 6.63916 1.16699 6.93001V17.57C1.16699 17.8609 1.28253 18.1398 1.4882 18.3455C1.69386 18.5511 1.9728 18.6667 2.26366 18.6667H18.737C19.0278 18.6667 19.3068 18.5511 19.5125 18.3455C19.7181 18.1398 19.8337 17.8609 19.8337 17.57V6.93001C19.8337 6.63916 19.7181 6.36021 19.5125 6.15455C19.3068 5.94888 19.0278 5.83334 18.737 5.83334ZM4.99366 7.84584C5.33978 7.84584 5.67812 7.94848 5.96591 8.14077C6.25369 8.33306 6.47799 8.60638 6.61045 8.92615C6.7429 9.24592 6.77756 9.59778 6.71003 9.93725C6.64251 10.2767 6.47584 10.5885 6.2311 10.8333C5.98635 11.078 5.67453 11.2447 5.33507 11.3122C4.9956 11.3797 4.64373 11.3451 4.32396 11.2126C4.00419 11.0802 3.73088 10.8559 3.53859 10.5681C3.34629 10.2803 3.24366 9.94196 3.24366 9.59584C3.24366 9.13171 3.42803 8.6866 3.75622 8.35841C4.08441 8.03022 4.52953 7.84584 4.99366 7.84584ZM17.5003 16.3333H3.50033L7.85199 11.9758C7.92956 11.8989 8.0344 11.8557 8.14366 11.8557C8.25292 11.8557 8.35775 11.8989 8.43533 11.9758L10.582 14.1225L13.5395 11.0833C13.6171 11.0064 13.7219 10.9632 13.8312 10.9632C13.9404 10.9632 14.0453 11.0064 14.1228 11.0833L17.5003 14.4608V16.3333Z" fill="black"/>
</svg>
