<svg width="24" height="24" viewBox="0 0 24 24" fill="none" xmlns="http://www.w3.org/2000/svg">
<path d="M23.547 9.16C23.4396 9.00391 23.2949 8.87706 23.1261 8.79092C22.9574 8.70478 22.7698 8.66208 22.5803 8.66667H7.44699C7.12768 8.6802 6.81839 8.7821 6.55355 8.96101C6.28872 9.13991 6.07874 9.38882 5.94699 9.68C5.94481 9.71107 5.94481 9.74226 5.94699 9.77333L4.00033 16.6667V4.66667H8.32699L10.067 7.06C10.1291 7.14493 10.2103 7.21397 10.3042 7.26148C10.398 7.30898 10.5018 7.3336 10.607 7.33333H21.3337C21.3337 6.97971 21.1932 6.64057 20.9431 6.39052C20.6931 6.14048 20.3539 6 20.0003 6H10.947L9.40699 3.88C9.28287 3.71014 9.12031 3.57206 8.9326 3.47704C8.7449 3.38203 8.53737 3.33279 8.32699 3.33333H4.00033C3.6467 3.33333 3.30756 3.47381 3.05752 3.72386C2.80747 3.97391 2.66699 4.31304 2.66699 4.66667V19.7933C2.6774 20.0332 2.78188 20.2594 2.95781 20.4229C3.13374 20.5863 3.36696 20.6739 3.60699 20.6667H20.227C20.3758 20.6726 20.5222 20.6285 20.643 20.5415C20.7639 20.4546 20.8521 20.3296 20.8937 20.1867L23.687 10.12C23.7391 9.96 23.7536 9.79013 23.7293 9.62362C23.705 9.45711 23.6426 9.29845 23.547 9.16Z" fill="black"/>
</svg>
