<svg width="24" height="24" viewBox="0 0 24 24" fill="none" xmlns="http://www.w3.org/2000/svg">
<path d="M21.413 6.66666H2.58634C2.25394 6.66666 1.93515 6.7987 1.7001 7.03375C1.46505 7.26879 1.33301 7.58759 1.33301 7.91999V20.08C1.33301 20.4124 1.46505 20.7312 1.7001 20.9662C1.93515 21.2013 2.25394 21.3333 2.58634 21.3333H21.413C21.7454 21.3333 22.0642 21.2013 22.2992 20.9662C22.5343 20.7312 22.6663 20.4124 22.6663 20.08V7.91999C22.6663 7.58759 22.5343 7.26879 22.2992 7.03375C22.0642 6.7987 21.7454 6.66666 21.413 6.66666ZM16.1197 14.5533L9.60634 17.46C9.50492 17.5056 9.39371 17.5251 9.28283 17.5167C9.17195 17.5083 9.06492 17.4724 8.9715 17.4121C8.87807 17.3518 8.80121 17.2691 8.74791 17.1715C8.69461 17.0739 8.66657 16.9645 8.66634 16.8533V11.04C8.66657 10.9288 8.69461 10.8194 8.74791 10.7218C8.80121 10.6242 8.87807 10.5415 8.9715 10.4812C9.06492 10.4209 9.17195 10.385 9.28283 10.3766C9.39371 10.3682 9.50492 10.3877 9.60634 10.4333L16.1197 13.3333C16.238 13.3855 16.3386 13.4709 16.4092 13.5792C16.4798 13.6875 16.5174 13.814 16.5174 13.9433C16.5174 14.0726 16.4798 14.1991 16.4092 14.3074C16.3386 14.4157 16.238 14.5012 16.1197 14.5533Z" fill="black"/>
<path d="M20.0937 2.00001C20.0937 1.8232 20.0235 1.65363 19.8985 1.52861C19.7735 1.40358 19.6039 1.33334 19.4271 1.33334H4.76042C4.58361 1.33334 4.41404 1.40358 4.28901 1.52861C4.16399 1.65363 4.09375 1.8232 4.09375 2.00001V2.66668H20.0937V2.00001Z" fill="black"/>
<path d="M21.4137 4.66667C21.4137 4.48986 21.3435 4.32029 21.2185 4.19526C21.0935 4.07024 20.9239 4 20.7471 4H3.41374C3.23693 4 3.06736 4.07024 2.94233 4.19526C2.81731 4.32029 2.74707 4.48986 2.74707 4.66667V5.33333H21.4137V4.66667Z" fill="black"/>
</svg>
