<svg width="14" height="14" viewBox="0 0 14 14" fill="none" xmlns="http://www.w3.org/2000/svg">
<path d="M12.5413 3.5C12.5413 3.64288 12.4889 3.78078 12.3939 3.88755C12.299 3.99432 12.1682 4.06253 12.0263 4.07925L11.958 4.08333H11.4651L10.747 11.3867C10.7079 11.783 10.5228 12.1505 10.2277 12.4179C9.93263 12.6853 9.54864 12.8334 9.15042 12.8333H4.84892C4.45071 12.8334 4.06672 12.6853 3.77162 12.4179C3.47653 12.1505 3.29144 11.783 3.25234 11.3867L2.53426 4.08333H2.04134C1.88663 4.08333 1.73826 4.02188 1.62886 3.91248C1.51947 3.80308 1.45801 3.65471 1.45801 3.5C1.45801 3.34529 1.51947 3.19692 1.62886 3.08752C1.73826 2.97813 1.88663 2.91667 2.04134 2.91667H4.95801C4.95801 2.64855 5.01082 2.38306 5.11342 2.13535C5.21602 1.88765 5.36641 1.66258 5.556 1.47299C5.74558 1.2834 5.97066 1.13302 6.21836 1.03041C6.46607 0.927809 6.73156 0.875 6.99967 0.875C7.26779 0.875 7.53328 0.927809 7.78099 1.03041C8.02869 1.13302 8.25376 1.2834 8.44335 1.47299C8.63294 1.66258 8.78333 1.88765 8.88593 2.13535C8.98853 2.38306 9.04134 2.64855 9.04134 2.91667H11.958C12.1127 2.91667 12.2611 2.97813 12.3705 3.08752C12.4799 3.19692 12.5413 3.34529 12.5413 3.5ZM8.31217 5.39583C8.20645 5.39584 8.10431 5.43412 8.02463 5.50361C7.94495 5.5731 7.89314 5.66909 7.87876 5.77383L7.87467 5.83333V9.91667L7.87876 9.97617C7.89317 10.0809 7.945 10.1768 8.02467 10.2463C8.10434 10.3158 8.20647 10.354 8.31217 10.354C8.41788 10.354 8.52 10.3158 8.59968 10.2463C8.67935 10.1768 8.73118 10.0809 8.74559 9.97617L8.74967 9.91667V5.83333L8.74559 5.77383C8.73121 5.66909 8.67939 5.5731 8.59972 5.50361C8.52004 5.43412 8.4179 5.39584 8.31217 5.39583ZM5.68717 5.39583C5.58145 5.39584 5.47931 5.43412 5.39963 5.50361C5.31995 5.5731 5.26814 5.66909 5.25376 5.77383L5.24967 5.83333V9.91667L5.25376 9.97617C5.26817 10.0809 5.32 10.1768 5.39967 10.2463C5.47934 10.3158 5.58147 10.354 5.68717 10.354C5.79288 10.354 5.895 10.3158 5.97468 10.2463C6.05435 10.1768 6.10618 10.0809 6.12059 9.97617L6.12467 9.91667V5.83333L6.12059 5.77383C6.10621 5.66909 6.05439 5.5731 5.97472 5.50361C5.89504 5.43412 5.7929 5.39584 5.68717 5.39583ZM6.99967 2.04167C6.76761 2.04167 6.54505 2.13385 6.38096 2.29795C6.21686 2.46204 6.12467 2.6846 6.12467 2.91667H7.87467C7.87467 2.6846 7.78249 2.46204 7.61839 2.29795C7.4543 2.13385 7.23174 2.04167 6.99967 2.04167Z" fill="black"/>
</svg>
