<svg width="14" height="14" viewBox="0 0 14 14" fill="none" xmlns="http://www.w3.org/2000/svg">
<path d="M5.68783 1.16663H8.01999C8.13084 1.16666 8.23754 1.20877 8.31854 1.28444C8.39953 1.36012 8.44879 1.46372 8.45634 1.57431C8.4639 1.6849 8.42919 1.79423 8.35924 1.88022C8.28929 1.9662 8.1893 2.02243 8.07949 2.03754L8.01999 2.04163H7.29199V11.9583H8.01883C8.12455 11.9583 8.22669 11.9966 8.30637 12.0661C8.38604 12.1356 8.43786 12.2316 8.45224 12.3363L8.45633 12.3958C8.45632 12.5015 8.41803 12.6037 8.34854 12.6833C8.27906 12.763 8.18306 12.8148 8.07833 12.8292L8.01883 12.8333H5.68783C5.57698 12.8333 5.47028 12.7912 5.38928 12.7155C5.30828 12.6398 5.25903 12.5362 5.25148 12.4256C5.24392 12.315 5.27863 12.2057 5.34858 12.1197C5.41853 12.0337 5.51851 11.9775 5.62833 11.9624L5.68783 11.9583H6.41641V2.04163H5.68783C5.5821 2.04162 5.47996 2.00333 5.40028 1.93385C5.32061 1.86436 5.26879 1.76837 5.25441 1.66363L5.25033 1.60413C5.25033 1.4984 5.28862 1.39626 5.35811 1.31658C5.4276 1.23691 5.52359 1.18509 5.62833 1.17071L5.68783 1.16663ZM10.6438 2.91488C11.1465 2.91534 11.6284 3.11523 11.9839 3.47066C12.3393 3.8261 12.5392 4.30805 12.5397 4.81071L12.542 9.18804C12.5423 9.67224 12.3573 10.1382 12.025 10.4903C11.6926 10.8424 11.2381 11.054 10.7547 11.0815L10.6462 11.0845H7.87824V2.91429H10.6432L10.6438 2.91488ZM5.83191 2.91488L5.82899 11.0833H3.06283C2.56012 11.0833 2.078 10.8836 1.72248 10.5282C1.36695 10.1728 1.16715 9.69075 1.16699 9.18804V4.81071C1.16699 4.3079 1.36673 3.82569 1.72227 3.47015C2.07781 3.11462 2.56002 2.91488 3.06283 2.91488H5.83191Z" fill="black"/>
</svg>
