<svg width="24" height="24" viewBox="0 0 24 24" fill="none" xmlns="http://www.w3.org/2000/svg">
<path d="M3.31616 16.2756C1.49816 18.0612 3.03416 19.8948 0.619759 22.6104C-0.469841 23.838 5.10536 23.4636 7.86656 20.7492C9.03896 19.596 8.70776 17.9184 7.45136 16.6824C6.19496 15.4488 4.48736 15.1224 3.31616 16.2756ZM23.4474 0.790806C22.5162 -0.125994 12.1926 8.14561 9.12056 11.166C7.59536 12.666 7.08656 13.47 6.61976 14.07C6.41576 14.3328 6.68576 14.412 6.80456 14.4732C7.40936 14.7828 7.83176 15.0684 8.37776 15.6048C8.92496 16.1412 9.21656 16.5564 9.52856 17.1516C9.59216 17.2692 9.67376 17.5332 9.93896 17.334C10.551 16.8744 11.3682 16.3728 12.8934 14.8752C15.9666 11.856 24.381 1.70641 23.4474 0.790806Z" fill="black"/>
</svg>
