<svg width="36" height="36" viewBox="0 0 36 36" fill="none" xmlns="http://www.w3.org/2000/svg">
<path fill-rule="evenodd" clip-rule="evenodd" d="M7.77164 23.4945C7.63453 23.217 7.29521 23.1013 7.01621 23.2348L5.90625 23.7656C5.90625 23.7656 9.07031 31.2891 17.9297 31.6406C26.3672 31.4297 31.5179 24.8026 31.5703 18.0703C31.6228 11.338 26.3672 4.64063 18.1406 4.57031C10.0547 4.42969 6.95306 10.899 6.95306 10.899C6.80217 11.1704 6.67969 11.1378 6.67969 10.8285V7.31208C6.67958 7.16297 6.62026 7.02 6.51479 6.9146C6.40931 6.80921 6.2663 6.75 6.11719 6.75H5.20313C4.89249 6.75 4.64063 7.00313 4.64063 7.31363V14.202C4.64044 14.2759 4.65485 14.3492 4.68302 14.4176C4.71119 14.486 4.75257 14.5481 4.8048 14.6005C4.85702 14.6528 4.91906 14.6944 4.98737 14.7227C5.05567 14.751 5.1289 14.7656 5.20285 14.7656H12.305C12.3788 14.7657 12.4518 14.7512 12.52 14.723C12.5882 14.6948 12.6502 14.6535 12.7024 14.6013C12.7546 14.5492 12.796 14.4873 12.8243 14.4191C12.8526 14.351 12.8672 14.2779 12.8672 14.2041V13.3584C12.8672 13.0483 12.6155 12.7931 12.3036 12.7884L8.71988 12.735C8.40853 12.7304 8.26664 12.4989 8.41303 12.2248C8.41303 12.2248 10.9688 6.32813 18.0703 6.39844C24.9609 6.46875 29.7072 12.2947 29.6719 18.1043C29.25 25.875 23.3438 29.6719 17.9297 29.5312C10.2656 29.5312 7.77164 23.4945 7.77164 23.4945Z" fill="black"/>
</svg>
